<svg xmlns="http://www.w3.org/2000/svg" viewBox="0 0 48 48" fill="none">
  <rect width="48" height="48" rx="12" fill="#B9FF66"/>
  <rect width="48" height="48" rx="12" fill="none" stroke="#191A23" stroke-width="2"/>
  <path d="M24 14C20 14 13 15.5 13 15.5V33.5C13 33.5 20 32 24 32C28 32 35 33.5 35 33.5V15.5C35 15.5 28 14 24 14Z" stroke="#191A23" stroke-width="2" stroke-linejoin="round"/>
  <line x1="24" y1="14" x2="24" y2="32" stroke="#191A23" stroke-width="2"/>
  <line x1="17" y1="18" x2="22" y2="17.2" stroke="#191A23" stroke-width="1.5" stroke-linecap="round"/>
  <line x1="17" y1="21.5" x2="22" y2="20.7" stroke="#191A23" stroke-width="1.5" stroke-linecap="round"/>
  <line x1="17" y1="25" x2="22" y2="24.2" stroke="#191A23" stroke-width="1.5" stroke-linecap="round"/>
  <line x1="26" y1="17.2" x2="31" y2="18" stroke="#191A23" stroke-width="1.5" stroke-linecap="round"/>
  <line x1="26" y1="20.7" x2="31" y2="21.5" stroke="#191A23" stroke-width="1.5" stroke-linecap="round"/>
  <line x1="26" y1="24.2" x2="31" y2="25" stroke="#191A23" stroke-width="1.5" stroke-linecap="round"/>
</svg>
